<svg width="32" height="32" viewBox="0 0 32 32" fill="none" xmlns="http://www.w3.org/2000/svg">
<rect x="8.5" y="16.5" width="15" height="15" rx="1.5" fill="#04F17A" stroke="black"/>
<path d="M20.6629 19.9181C20.9109 19.8458 21.0535 19.5841 20.9812 19.3361C20.909 19.088 20.6473 18.9454 20.3973 19.0197L12.0096 21.4786C11.8261 21.5313 11.6601 21.6212 11.5195 21.7364C11.2051 21.963 11 22.3321 11 22.7501V22.8282V24.9375V27.75C11 28.4395 11.5605 29 12.2498 29H19.7489C20.4383 29 20.9988 28.4395 20.9988 27.75V22.7501C20.9988 22.0606 20.4383 21.5001 19.7489 21.5001H15.2671L20.6629 19.9181ZM18.1866 23.6876C18.601 23.6876 18.9984 23.8522 19.2914 24.1452C19.5843 24.4382 19.7489 24.8357 19.7489 25.25C19.7489 25.6644 19.5843 26.0619 19.2914 26.3549C18.9984 26.6479 18.601 26.8125 18.1866 26.8125C17.7723 26.8125 17.3749 26.6479 17.0819 26.3549C16.7889 26.0619 16.6243 25.6644 16.6243 25.25C16.6243 24.8357 16.7889 24.4382 17.0819 24.1452C17.3749 23.8522 17.7723 23.6876 18.1866 23.6876ZM12.5623 24.0001C12.5623 23.8282 12.7029 23.6876 12.8748 23.6876H14.7495C14.9214 23.6876 15.062 23.8282 15.062 24.0001C15.062 24.1719 14.9214 24.3126 14.7495 24.3126H12.8748C12.7029 24.3126 12.5623 24.1719 12.5623 24.0001ZM12.2498 25.25C12.2498 25.0782 12.3905 24.9375 12.5623 24.9375H15.062C15.2339 24.9375 15.3745 25.0782 15.3745 25.25C15.3745 25.4219 15.2339 25.5625 15.062 25.5625H12.5623C12.3905 25.5625 12.2498 25.4219 12.2498 25.25ZM12.5623 26.5C12.5623 26.3282 12.7029 26.1875 12.8748 26.1875H14.7495C14.9214 26.1875 15.062 26.3282 15.062 26.5C15.062 26.6719 14.9214 26.8125 14.7495 26.8125H12.8748C12.7029 26.8125 12.5623 26.6719 12.5623 26.5Z" fill="#39344E"/>
<path d="M20.6629 19.9181C20.9109 19.8458 21.0535 19.5841 20.9812 19.3361C20.909 19.088 20.6473 18.9454 20.3973 19.0197L12.0096 21.4786C11.8261 21.5313 11.6601 21.6212 11.5195 21.7364C11.2051 21.963 11 22.3321 11 22.7501V22.8282V24.9375V27.75C11 28.4395 11.5605 29 12.2498 29H19.7489C20.4383 29 20.9988 28.4395 20.9988 27.75V22.7501C20.9988 22.0606 20.4383 21.5001 19.7489 21.5001H15.2671L20.6629 19.9181ZM18.1866 23.6876C18.601 23.6876 18.9984 23.8522 19.2914 24.1452C19.5843 24.4382 19.7489 24.8357 19.7489 25.25C19.7489 25.6644 19.5843 26.0619 19.2914 26.3549C18.9984 26.6479 18.601 26.8125 18.1866 26.8125C17.7723 26.8125 17.3749 26.6479 17.0819 26.3549C16.7889 26.0619 16.6243 25.6644 16.6243 25.25C16.6243 24.8357 16.7889 24.4382 17.0819 24.1452C17.3749 23.8522 17.7723 23.6876 18.1866 23.6876ZM12.5623 24.0001C12.5623 23.8282 12.7029 23.6876 12.8748 23.6876H14.7495C14.9214 23.6876 15.062 23.8282 15.062 24.0001C15.062 24.1719 14.9214 24.3126 14.7495 24.3126H12.8748C12.7029 24.3126 12.5623 24.1719 12.5623 24.0001ZM12.2498 25.25C12.2498 25.0782 12.3905 24.9375 12.5623 24.9375H15.062C15.2339 24.9375 15.3745 25.0782 15.3745 25.25C15.3745 25.4219 15.2339 25.5625 15.062 25.5625H12.5623C12.3905 25.5625 12.2498 25.4219 12.2498 25.25ZM12.5623 26.5C12.5623 26.3282 12.7029 26.1875 12.8748 26.1875H14.7495C14.9214 26.1875 15.062 26.3282 15.062 26.5C15.062 26.6719 14.9214 26.8125 14.7495 26.8125H12.8748C12.7029 26.8125 12.5623 26.6719 12.5623 26.5Z" stroke="black"/>
</svg>
