<?xml version="1.0" standalone="no"?>
<!DOCTYPE svg PUBLIC "-//W3C//DTD SVG 20010904//EN"
 "http://www.w3.org/TR/2001/REC-SVG-20010904/DTD/svg10.dtd">
<svg version="1.0" xmlns="http://www.w3.org/2000/svg"
 width="250.000000pt" height="257.000000pt" viewBox="0 0 250.000000 257.000000"
 preserveAspectRatio="xMidYMid meet">

<g transform="translate(0.000000,257.000000) scale(0.100000,-0.100000)"
fill="#000000" stroke="none">
<path d="M384 2341 c-66 -40 -63 2 -63 -1051 -1 -1030 -3 -988 53 -1040 l28
-25 238 -3 c267 -3 294 2 330 60 20 33 20 48 20 1011 0 975 0 979 -21 1008
-40 56 -56 59 -316 59 -216 0 -241 -2 -269 -19z"/>
<path d="M1605 2350 c-11 -4 -31 -20 -45 -35 l-25 -27 -3 -981 c-2 -920 -1
-984 15 -1016 34 -65 59 -71 313 -71 248 0 271 5 314 63 21 28 21 32 19 1008
-2 901 -3 981 -19 1008 -34 58 -49 61 -311 60 -131 0 -247 -4 -258 -9z"/>
</g>
</svg>
